<svg xmlns="http://www.w3.org/2000/svg" xmlns:xlink="http://www.w3.org/1999/xlink" width="150" zoomAndPan="magnify" viewBox="0 0 112.5 37.5" height="50" preserveAspectRatio="xMidYMid meet" version="1.0"><defs><g/></defs><g fill="#ff3131" fill-opacity="1"><g transform="translate(27.973105, 20.325921)"><g><path d="M 15.359375 -18.96875 C 17.367188 -18.96875 18.914062 -18.53125 20 -17.65625 C 21.09375 -16.78125 21.640625 -15.625 21.640625 -14.1875 C 21.640625 -13.613281 21.554688 -13.015625 21.390625 -12.390625 C 20.859375 -10.492188 19.804688 -9.085938 18.234375 -8.171875 C 16.671875 -7.265625 14.695312 -6.8125 12.3125 -6.8125 L 9.375 -6.8125 L 8.40625 -3.359375 C 8.363281 -3.242188 8.34375 -3.09375 8.34375 -2.90625 C 8.34375 -2.632812 8.40625 -2.414062 8.53125 -2.25 C 8.65625 -2.082031 8.84375 -1.882812 9.09375 -1.65625 C 9.300781 -1.46875 9.441406 -1.320312 9.515625 -1.21875 C 9.585938 -1.125 9.625 -1.015625 9.625 -0.890625 C 9.625 -0.566406 9.472656 -0.335938 9.171875 -0.203125 C 8.867188 -0.0664062 8.421875 0 7.828125 0 L 0.6875 0 C 0.1875 0 -0.179688 -0.0859375 -0.421875 -0.265625 C -0.671875 -0.453125 -0.757812 -0.707031 -0.6875 -1.03125 C -0.644531 -1.195312 -0.570312 -1.332031 -0.46875 -1.4375 C -0.363281 -1.539062 -0.207031 -1.660156 0 -1.796875 C 0.320312 -1.984375 0.578125 -2.179688 0.765625 -2.390625 C 0.953125 -2.597656 1.101562 -2.921875 1.21875 -3.359375 L 4.703125 -15.640625 C 4.773438 -15.890625 4.8125 -16.125 4.8125 -16.34375 C 4.8125 -16.550781 4.773438 -16.726562 4.703125 -16.875 C 4.640625 -17.019531 4.550781 -17.1875 4.4375 -17.375 C 4.269531 -17.625 4.1875 -17.820312 4.1875 -17.96875 C 4.1875 -18.03125 4.207031 -18.132812 4.25 -18.28125 C 4.320312 -18.53125 4.484375 -18.707031 4.734375 -18.8125 C 4.992188 -18.914062 5.390625 -18.96875 5.921875 -18.96875 Z M 14.609375 -12.90625 C 14.816406 -13.601562 14.921875 -14.21875 14.921875 -14.75 C 14.921875 -15.851562 14.410156 -16.40625 13.390625 -16.40625 L 12.109375 -16.40625 L 10.078125 -9.375 L 11.34375 -9.375 C 12.132812 -9.375 12.78125 -9.625 13.28125 -10.125 C 13.789062 -10.625 14.234375 -11.550781 14.609375 -12.90625 Z M 14.609375 -12.90625 "/></g></g></g><g fill="#ff3131" fill-opacity="1"><g transform="translate(47.421261, 20.325921)"><g><path d="M 3.390625 -5.75 C 4.148438 -5.75 4.789062 -5.492188 5.3125 -4.984375 C 5.832031 -4.472656 6.09375 -3.847656 6.09375 -3.109375 C 6.09375 -2.585938 5.953125 -2.082031 5.671875 -1.59375 C 5.398438 -1.101562 5.019531 -0.703125 4.53125 -0.390625 C 4.050781 -0.078125 3.507812 0.078125 2.90625 0.078125 C 2.164062 0.078125 1.535156 -0.175781 1.015625 -0.6875 C 0.503906 -1.195312 0.242188 -1.820312 0.234375 -2.5625 C 0.234375 -3.070312 0.363281 -3.570312 0.625 -4.0625 C 0.894531 -4.5625 1.269531 -4.96875 1.75 -5.28125 C 2.238281 -5.59375 2.785156 -5.75 3.390625 -5.75 Z M 3.390625 -5.75 "/></g></g></g><g fill="#ff3131" fill-opacity="1"><g transform="translate(55.878218, 20.325921)"><g><path d="M 20.84375 -19.078125 C 21.644531 -19.078125 22.3125 -18.820312 22.84375 -18.3125 C 23.375 -17.800781 23.640625 -17.109375 23.640625 -16.234375 C 23.640625 -15.242188 23.34375 -14.445312 22.75 -13.84375 C 22.164062 -13.238281 21.46875 -12.9375 20.65625 -12.9375 C 20.125 -12.9375 19.664062 -13.03125 19.28125 -13.21875 C 18.90625 -13.40625 18.546875 -13.707031 18.203125 -14.125 L 15.75 -12.078125 L 18.515625 -3.90625 C 18.679688 -3.425781 18.863281 -3.039062 19.0625 -2.75 C 19.269531 -2.46875 19.515625 -2.1875 19.796875 -1.90625 C 20.003906 -1.695312 20.148438 -1.53125 20.234375 -1.40625 C 20.316406 -1.28125 20.359375 -1.132812 20.359375 -0.96875 C 20.359375 -0.664062 20.222656 -0.425781 19.953125 -0.25 C 19.679688 -0.0820312 19.203125 0 18.515625 0 L 14.78125 0 C 13.851562 0 13.164062 -0.203125 12.71875 -0.609375 C 12.269531 -1.015625 11.90625 -1.695312 11.625 -2.65625 L 10.203125 -7.4375 L 9.375 -6.75 L 8.4375 -3.359375 C 8.351562 -3.109375 8.3125 -2.875 8.3125 -2.65625 C 8.3125 -2.425781 8.34375 -2.234375 8.40625 -2.078125 C 8.476562 -1.921875 8.582031 -1.757812 8.71875 -1.59375 C 8.882812 -1.34375 8.96875 -1.144531 8.96875 -1 C 8.96875 -0.957031 8.953125 -0.863281 8.921875 -0.71875 C 8.835938 -0.445312 8.660156 -0.257812 8.390625 -0.15625 C 8.128906 -0.0507812 7.734375 0 7.203125 0 L 0.515625 0 C 0.117188 0 -0.1875 -0.0664062 -0.40625 -0.203125 C -0.625 -0.335938 -0.734375 -0.515625 -0.734375 -0.734375 C -0.734375 -0.847656 -0.707031 -0.972656 -0.65625 -1.109375 C -0.582031 -1.316406 -0.457031 -1.476562 -0.28125 -1.59375 C -0.113281 -1.707031 -0.0078125 -1.773438 0.03125 -1.796875 C 0.332031 -1.984375 0.578125 -2.175781 0.765625 -2.375 C 0.953125 -2.570312 1.113281 -2.898438 1.25 -3.359375 L 4.734375 -15.640625 C 4.804688 -15.890625 4.84375 -16.125 4.84375 -16.34375 C 4.84375 -16.550781 4.804688 -16.726562 4.734375 -16.875 C 4.671875 -17.019531 4.582031 -17.1875 4.46875 -17.375 C 4.300781 -17.625 4.21875 -17.820312 4.21875 -17.96875 C 4.21875 -18.03125 4.234375 -18.132812 4.265625 -18.28125 C 4.347656 -18.53125 4.515625 -18.707031 4.765625 -18.8125 C 5.023438 -18.914062 5.421875 -18.96875 5.953125 -18.96875 L 12.640625 -18.96875 C 13.046875 -18.96875 13.359375 -18.90625 13.578125 -18.78125 C 13.796875 -18.65625 13.90625 -18.484375 13.90625 -18.265625 C 13.90625 -18.160156 13.875 -18.035156 13.8125 -17.890625 C 13.757812 -17.753906 13.679688 -17.632812 13.578125 -17.53125 C 13.472656 -17.425781 13.375 -17.347656 13.28125 -17.296875 C 13.195312 -17.253906 13.140625 -17.210938 13.109375 -17.171875 C 12.796875 -17.003906 12.546875 -16.816406 12.359375 -16.609375 C 12.171875 -16.398438 12.007812 -16.078125 11.875 -15.640625 L 10.6875 -11.390625 L 18.234375 -17.921875 C 18.722656 -18.335938 19.164062 -18.632812 19.5625 -18.8125 C 19.96875 -18.988281 20.394531 -19.078125 20.84375 -19.078125 Z M 20.84375 -19.078125 "/></g></g></g><g fill="#ff3131" fill-opacity="1"><g transform="translate(78.308292, 20.325921)"><g/></g></g><g fill="#000000" fill-opacity="1"><g transform="translate(15.334596, 33.854208)"><g><path d="M 4.59375 0.046875 L 6.46875 0.015625 L 6.75 -0.109375 L 6.890625 -0.375 L 6.890625 -1.71875 L 6.75 -1.984375 L 6.46875 -2.09375 L 6.171875 -2.078125 L 5.921875 -2.109375 L 5.25 -2.125 L 4.8125 -2.078125 L 4.546875 -2.09375 L 4.265625 -2.078125 L 4.015625 -2.125 L 3.71875 -2.09375 L 3.4375 -2.234375 L 3.34375 -2.46875 L 3.34375 -3.296875 L 3.453125 -3.578125 L 3.6875 -3.71875 L 4.09375 -3.734375 L 4.515625 -3.6875 L 5.015625 -3.71875 L 5.546875 -3.703125 L 5.8125 -3.734375 L 6.125 -3.71875 L 6.375 -3.828125 L 6.46875 -4.09375 L 6.515625 -5.28125 L 6.375 -5.640625 L 6.078125 -5.8125 L 5.296875 -5.8125 L 5.03125 -5.796875 L 4.46875 -5.828125 L 3.703125 -5.796875 L 3.421875 -5.921875 L 3.328125 -6.328125 L 3.328125 -6.734375 L 3.4375 -6.984375 L 3.734375 -7.09375 L 3.984375 -7.078125 L 4.234375 -7.140625 L 6.125 -7.109375 L 6.375 -7.125 L 6.640625 -7.28125 L 6.78125 -7.515625 L 6.765625 -7.78125 L 6.78125 -8.046875 L 6.75 -8.828125 L 6.640625 -9.09375 L 6.375 -9.1875 L 6.09375 -9.1875 L 5.859375 -9.25 L 4.78125 -9.234375 L 4.5 -9.203125 L 4.234375 -9.234375 L 4.015625 -9.21875 L 3.75 -9.25 L 2.65625 -9.21875 L 2.40625 -9.25 L 2.15625 -9.203125 L 1.90625 -9.234375 L 1.640625 -9.203125 L 1.390625 -9.21875 L 1.109375 -9.109375 L 0.96875 -8.828125 L 0.984375 -8.328125 L 0.953125 -7.796875 L 0.984375 -7.5 L 0.96875 -6.21875 L 1 -5.9375 L 0.96875 -5.6875 L 0.96875 -4.609375 L 1 -4.359375 L 0.984375 -2.234375 L 0.96875 -1.984375 L 1 -1.71875 L 0.96875 -0.796875 L 0.984375 -0.515625 L 1.09375 -0.15625 L 1.484375 0.015625 L 2.4375 0.03125 L 2.734375 0 L 2.96875 0.015625 L 3.515625 -0.03125 L 3.765625 0.03125 L 4.0625 0.046875 L 4.328125 0.015625 Z M 4.59375 0.046875 "/></g></g></g><g fill="#000000" fill-opacity="1"><g transform="translate(22.888888, 33.854208)"><g><path d="M 7.78125 -0.21875 L 8.15625 -0.046875 L 8.5 0.0625 L 8.8125 -0.078125 L 8.921875 -0.359375 L 9 -3.9375 L 8.9375 -4.3125 L 8.96875 -4.609375 L 8.921875 -6.1875 L 8.953125 -6.71875 L 8.921875 -6.96875 L 8.921875 -7.484375 L 8.984375 -7.75 L 8.953125 -8.15625 L 8.984375 -8.828125 L 8.828125 -9.078125 L 8.53125 -9.203125 L 8.265625 -9.234375 L 8.015625 -9.234375 L 7.734375 -9.203125 L 7.453125 -9.25 L 7.21875 -9.21875 L 6.953125 -9.234375 L 6.640625 -9.09375 L 6.5 -8.828125 L 6.484375 -6.421875 L 6.546875 -6.140625 L 6.546875 -5.890625 L 6.484375 -5.625 L 6.5 -5.09375 L 6.4375 -4.875 L 6.25 -4.9375 L 5.671875 -5.53125 L 5.46875 -5.6875 L 5.015625 -6.15625 L 4.796875 -6.3125 L 4.65625 -6.5 L 4.375 -6.796875 L 3.96875 -7.140625 L 3.828125 -7.328125 L 3.578125 -7.5 L 3.4375 -7.703125 L 3.21875 -7.859375 L 3.046875 -8.078125 L 2.328125 -8.8125 L 1.8125 -9.171875 L 1.453125 -9.265625 L 1.140625 -9.109375 L 0.96875 -8.859375 L 0.984375 -7.015625 L 0.96875 -6.75 L 1 -6.21875 L 0.96875 -5.96875 L 0.984375 -5.703125 L 0.953125 -5.421875 L 1 -3.53125 L 0.96875 -3.296875 L 0.96875 -3.046875 L 0.953125 -2.75 L 0.953125 -2.5 L 0.984375 -2.234375 L 0.96875 -1.6875 L 1 -1.421875 L 0.96875 -0.921875 L 1 -0.65625 L 1 -0.40625 L 1.125 -0.125 L 1.375 0.03125 L 1.8125 0 L 2.484375 0.046875 L 2.75 0 L 3.0625 0.03125 L 3.328125 -0.109375 L 3.4375 -0.375 L 3.40625 -0.640625 L 3.4375 -3.859375 L 3.390625 -4.140625 L 3.515625 -4.296875 L 3.6875 -4.265625 L 5.578125 -2.40625 L 5.796875 -2.234375 L 7.0625 -0.96875 L 7.234375 -0.75 L 7.453125 -0.578125 L 7.609375 -0.375 Z M 7.78125 -0.21875 "/></g></g></g><g fill="#000000" fill-opacity="1"><g transform="translate(32.829453, 33.854208)"><g><path d="M 2.53125 -0.40625 L 2.640625 -0.125 L 2.921875 0 L 3.171875 -0.03125 L 3.421875 0 L 3.671875 -0.03125 L 4.5 -0.03125 L 4.765625 -0.125 L 4.859375 -0.390625 L 4.859375 -0.640625 L 4.875 -0.953125 L 4.859375 -1.484375 L 4.828125 -1.703125 L 4.859375 -1.984375 L 4.890625 -2.78125 L 4.859375 -3.015625 L 4.90625 -3.578125 L 4.859375 -6.203125 L 4.890625 -6.46875 L 4.859375 -6.75 L 4.96875 -6.984375 L 5.265625 -7.109375 L 5.484375 -7.125 L 5.75 -7.109375 L 5.984375 -7.140625 L 6.71875 -7.125 L 7.015625 -7.234375 L 7.140625 -7.5 L 7.125 -7.78125 L 7.140625 -8.859375 L 7.015625 -9.125 L 6.75 -9.25 L 6.4375 -9.234375 L 6.21875 -9.25 L 5.96875 -9.25 L 5.6875 -9.21875 L 5.421875 -9.21875 L 5.15625 -9.25 L 4.890625 -9.25 L 4.59375 -9.203125 L 0.65625 -9.234375 L 0.375 -9.09375 L 0.234375 -8.828125 L 0.21875 -7.515625 L 0.375 -7.234375 L 0.640625 -7.09375 L 0.96875 -7.140625 L 2.15625 -7.125 L 2.390625 -6.96875 L 2.515625 -6.71875 L 2.5625 -5.28125 L 2.515625 -4.859375 L 2.546875 -4.609375 L 2.515625 -4.359375 L 2.515625 -3.828125 L 2.5625 -3.4375 L 2.5 -3.046875 L 2.515625 -2.78125 L 2.5 -2.5 L 2.546875 -1.703125 L 2.515625 -1.4375 Z M 2.53125 -0.40625 "/></g></g></g><g fill="#000000" fill-opacity="1"><g transform="translate(40.199179, 33.854208)"><g><path d="M 0.953125 -0.375 L 1.125 -0.125 L 1.375 0.015625 L 4.359375 -0.015625 L 4.59375 0.03125 L 5.390625 -0.015625 L 6.203125 0.046875 L 6.453125 0.015625 L 6.71875 -0.125 L 6.84375 -0.375 L 6.875 -0.625 L 6.859375 -1.4375 L 6.890625 -1.6875 L 6.71875 -1.953125 L 6.3125 -2.078125 L 4.578125 -2.109375 L 4.328125 -2.078125 L 4.03125 -2.09375 L 3.75 -2.078125 L 3.46875 -2.234375 L 3.34375 -2.640625 L 3.359375 -3.28125 L 3.484375 -3.5625 L 3.71875 -3.703125 L 4.234375 -3.703125 L 4.5 -3.734375 L 5.203125 -3.6875 L 5.546875 -3.71875 L 5.828125 -3.6875 L 6.0625 -3.703125 L 6.328125 -3.84375 L 6.46875 -4.09375 L 6.484375 -5.140625 L 6.46875 -5.40625 L 6.34375 -5.65625 L 6.125 -5.796875 L 5.59375 -5.8125 L 5.328125 -5.796875 L 5.046875 -5.796875 L 4.75 -5.8125 L 3.703125 -5.796875 L 3.484375 -5.953125 L 3.328125 -6.1875 L 3.296875 -6.59375 L 3.421875 -6.96875 L 3.84375 -7.09375 L 6.375 -7.109375 L 6.640625 -7.25 L 6.796875 -7.484375 L 6.765625 -8.03125 L 6.71875 -8.28125 L 6.734375 -8.578125 L 6.78125 -8.828125 L 6.640625 -9.09375 L 6.375 -9.203125 L 5.3125 -9.21875 L 5.078125 -9.1875 L 4.8125 -9.234375 L 4.234375 -9.203125 L 3.96875 -9.234375 L 3.453125 -9.21875 L 3.21875 -9.25 L 1.484375 -9.203125 L 1.109375 -9.109375 L 0.96875 -8.828125 L 1 -8.296875 L 0.953125 -7.90625 L 1 -7.234375 L 0.96875 -6.96875 L 1 -6.71875 L 1 -4.359375 L 0.96875 -4.09375 L 1 -3.578125 L 0.96875 -3.046875 L 1.015625 -2.765625 L 0.984375 -2.484375 L 1 -2.234375 L 0.96875 -1.984375 L 0.984375 -1.6875 L 0.984375 -1.421875 L 1.015625 -0.90625 L 1 -0.640625 Z M 0.953125 -0.375 "/></g></g></g><g fill="#000000" fill-opacity="1"><g transform="translate(47.753471, 33.854208)"><g><path d="M 1.015625 -0.421875 L 1.109375 -0.125 L 1.375 0 L 1.625 0.015625 L 2.15625 -0.03125 L 2.4375 0 L 2.828125 0 L 3.25 -0.125 L 3.34375 -0.375 L 3.359375 -0.65625 L 3.3125 -0.9375 L 3.34375 -1.5 L 3.328125 -2.328125 L 3.4375 -2.578125 L 3.703125 -2.71875 L 3.9375 -2.71875 L 4.1875 -2.734375 L 4.515625 -2.625 L 4.71875 -2.40625 L 5.0625 -1.9375 L 5.15625 -1.6875 L 5.53125 -1.03125 L 5.703125 -0.78125 L 5.8125 -0.546875 L 5.96875 -0.34375 L 6.234375 -0.109375 L 6.5625 -0.03125 L 7.046875 0 L 7.328125 -0.03125 L 7.59375 0 L 8.125 0 L 8.40625 -0.03125 L 8.6875 -0.09375 L 8.75 -0.375 L 8.578125 -0.703125 L 8.15625 -1.34375 L 8.03125 -1.5625 L 7.875 -1.8125 L 7.734375 -2.046875 L 7.5625 -2.25 L 7.171875 -2.9375 L 7.140625 -3.25 L 7.28125 -3.53125 L 7.65625 -3.890625 L 7.8125 -4.109375 L 7.90625 -4.359375 L 8.046875 -4.609375 L 8.140625 -4.828125 L 8.28125 -5.328125 L 8.296875 -6.375 L 8.234375 -6.625 L 8.1875 -6.875 L 8.125 -7.140625 L 7.765625 -7.859375 L 7.578125 -8.0625 L 7.46875 -8.25 L 6.8125 -8.75 L 6.34375 -9 L 5.25 -9.21875 L 4.921875 -9.25 L 4.53125 -9.234375 L 4.25 -9.25 L 3.984375 -9.21875 L 3.6875 -9.25 L 3.46875 -9.21875 L 2.671875 -9.25 L 2.421875 -9.203125 L 1.890625 -9.25 L 1.640625 -9.21875 L 1.34375 -9.234375 L 1.09375 -9.109375 L 0.984375 -8.828125 L 0.953125 -5.140625 L 0.984375 -4.765625 L 0.984375 -4.09375 L 0.96875 -3.828125 L 0.953125 -3.328125 L 0.984375 -3.03125 L 0.953125 -2.5 L 1 -1.734375 L 0.96875 -1.453125 Z M 3.703125 -4.859375 L 3.484375 -4.96875 L 3.34375 -5.25 L 3.3125 -6.71875 L 3.46875 -6.984375 L 3.734375 -7.125 L 3.9375 -7.140625 L 4.671875 -7.125 L 5.28125 -7.046875 L 5.6875 -6.796875 L 5.8125 -6.59375 L 5.90625 -6.375 L 5.9375 -6 L 5.890625 -5.640625 L 5.796875 -5.375 L 5.640625 -5.15625 L 5.484375 -5 L 5.28125 -4.90625 L 4.265625 -4.8125 L 4 -4.859375 Z M 3.703125 -4.859375 "/></g></g></g><g fill="#000000" fill-opacity="1"><g transform="translate(56.889816, 33.854208)"><g><path d="M 0.96875 -0.40625 L 1.078125 -0.125 L 1.359375 -0.03125 L 1.625 0 L 2.40625 -0.015625 L 2.6875 0.015625 L 2.96875 0.015625 L 3.234375 -0.125 L 3.34375 -0.40625 L 3.359375 -0.9375 L 3.34375 -1.1875 L 3.375 -1.421875 L 3.34375 -1.71875 L 3.34375 -1.984375 L 3.4375 -2.21875 L 3.796875 -2.34375 L 4.09375 -2.390625 L 4.484375 -2.34375 L 5.171875 -2.359375 L 5.703125 -2.46875 L 6.46875 -2.6875 L 6.921875 -2.96875 L 7.140625 -3.125 L 7.53125 -3.515625 L 7.953125 -4.140625 L 8.078125 -4.375 L 8.15625 -4.609375 L 8.28125 -5.15625 L 8.3125 -5.390625 L 8.328125 -6.171875 L 8.078125 -7.203125 L 7.8125 -7.671875 L 7.65625 -7.90625 L 7.484375 -8.078125 L 7.328125 -8.28125 L 7.109375 -8.484375 L 6.71875 -8.75 L 6.234375 -9 L 5.953125 -9.046875 L 5.703125 -9.15625 L 5.453125 -9.203125 L 1.515625 -9.21875 L 1.15625 -9.09375 L 1.03125 -8.84375 L 1 -8.578125 L 1 -8.03125 L 0.96875 -7.796875 L 0.96875 -7.546875 L 1 -7.265625 L 1 -5.921875 L 0.96875 -5.65625 L 1 -5.421875 L 0.96875 -5.125 L 1.015625 -4.59375 L 0.96875 -4.234375 L 1 -3.84375 L 0.96875 -3.59375 L 0.96875 -3.03125 L 1.015625 -2.78125 L 0.96875 -2.25 L 1.015625 -1.421875 L 0.953125 -1.15625 L 1 -0.90625 L 0.96875 -0.65625 Z M 3.765625 -4.5 L 3.515625 -4.609375 L 3.359375 -4.875 L 3.34375 -6.71875 L 3.5 -7 L 3.765625 -7.109375 L 4.09375 -7.140625 L 5.140625 -7.078125 L 5.375 -6.96875 L 5.5625 -6.8125 L 5.78125 -6.625 L 5.90625 -6.390625 L 6.03125 -5.78125 L 5.875 -5.171875 L 5.578125 -4.796875 L 5.375 -4.65625 L 5.15625 -4.53125 L 4.078125 -4.46875 Z M 3.765625 -4.5 "/></g></g></g><g fill="#000000" fill-opacity="1"><g transform="translate(65.564733, 33.854208)"><g><path d="M 1.015625 -0.421875 L 1.109375 -0.125 L 1.375 0 L 1.625 0.015625 L 2.15625 -0.03125 L 2.4375 0 L 2.828125 0 L 3.25 -0.125 L 3.34375 -0.375 L 3.359375 -0.65625 L 3.3125 -0.9375 L 3.34375 -1.5 L 3.328125 -2.328125 L 3.4375 -2.578125 L 3.703125 -2.71875 L 3.9375 -2.71875 L 4.1875 -2.734375 L 4.515625 -2.625 L 4.71875 -2.40625 L 5.0625 -1.9375 L 5.15625 -1.6875 L 5.53125 -1.03125 L 5.703125 -0.78125 L 5.8125 -0.546875 L 5.96875 -0.34375 L 6.234375 -0.109375 L 6.5625 -0.03125 L 7.046875 0 L 7.328125 -0.03125 L 7.59375 0 L 8.125 0 L 8.40625 -0.03125 L 8.6875 -0.09375 L 8.75 -0.375 L 8.578125 -0.703125 L 8.15625 -1.34375 L 8.03125 -1.5625 L 7.875 -1.8125 L 7.734375 -2.046875 L 7.5625 -2.25 L 7.171875 -2.9375 L 7.140625 -3.25 L 7.28125 -3.53125 L 7.65625 -3.890625 L 7.8125 -4.109375 L 7.90625 -4.359375 L 8.046875 -4.609375 L 8.140625 -4.828125 L 8.28125 -5.328125 L 8.296875 -6.375 L 8.234375 -6.625 L 8.1875 -6.875 L 8.125 -7.140625 L 7.765625 -7.859375 L 7.578125 -8.0625 L 7.46875 -8.25 L 6.8125 -8.75 L 6.34375 -9 L 5.25 -9.21875 L 4.921875 -9.25 L 4.53125 -9.234375 L 4.25 -9.25 L 3.984375 -9.21875 L 3.6875 -9.25 L 3.46875 -9.21875 L 2.671875 -9.25 L 2.421875 -9.203125 L 1.890625 -9.25 L 1.640625 -9.21875 L 1.34375 -9.234375 L 1.09375 -9.109375 L 0.984375 -8.828125 L 0.953125 -5.140625 L 0.984375 -4.765625 L 0.984375 -4.09375 L 0.96875 -3.828125 L 0.953125 -3.328125 L 0.984375 -3.03125 L 0.953125 -2.5 L 1 -1.734375 L 0.96875 -1.453125 Z M 3.703125 -4.859375 L 3.484375 -4.96875 L 3.34375 -5.25 L 3.3125 -6.71875 L 3.46875 -6.984375 L 3.734375 -7.125 L 3.9375 -7.140625 L 4.671875 -7.125 L 5.28125 -7.046875 L 5.6875 -6.796875 L 5.8125 -6.59375 L 5.90625 -6.375 L 5.9375 -6 L 5.890625 -5.640625 L 5.796875 -5.375 L 5.640625 -5.15625 L 5.484375 -5 L 5.28125 -4.90625 L 4.265625 -4.8125 L 4 -4.859375 Z M 3.703125 -4.859375 "/></g></g></g><g fill="#000000" fill-opacity="1"><g transform="translate(74.701078, 33.854208)"><g><path d="M 0.640625 -0.375 L 0.765625 -0.109375 L 1.03125 -0.015625 L 4.9375 0.015625 L 5.203125 -0.125 L 5.34375 -0.359375 L 5.34375 -0.640625 L 5.3125 -0.890625 L 5.359375 -1.6875 L 5.171875 -1.90625 L 4.28125 -2.1875 L 4.140625 -2.453125 L 4.171875 -3.53125 L 4.109375 -4.0625 L 4.171875 -4.609375 L 4.140625 -5.015625 L 4.171875 -5.421875 L 4.140625 -5.671875 L 4.171875 -5.9375 L 4.140625 -6.21875 L 4.140625 -6.765625 L 4.28125 -7 L 4.53125 -7.140625 L 4.828125 -7.15625 L 5.078125 -7.3125 L 5.21875 -7.5625 L 5.21875 -8.328125 L 5.25 -8.578125 L 5.21875 -8.828125 L 5.109375 -9.09375 L 4.6875 -9.21875 L 3.015625 -9.234375 L 2.734375 -9.203125 L 1.921875 -9.21875 L 1.671875 -9.203125 L 1.15625 -9.234375 L 0.875 -9.09375 L 0.71875 -8.828125 L 0.71875 -8.578125 L 0.703125 -8.34375 L 0.703125 -8.0625 L 0.71875 -7.796875 L 0.71875 -7.546875 L 0.859375 -7.296875 L 1.65625 -7.015625 L 1.828125 -6.78125 L 1.796875 -5.65625 L 1.8125 -5.4375 L 1.84375 -5.125 L 1.828125 -4.59375 L 1.8125 -4.328125 L 1.859375 -3.8125 L 1.796875 -3.546875 L 1.84375 -2.984375 L 1.8125 -2.46875 L 1.6875 -2.171875 L 0.8125 -1.90625 L 0.65625 -1.640625 L 0.640625 -1.390625 Z M 0.640625 -0.375 "/></g></g></g><g fill="#000000" fill-opacity="1"><g transform="translate(80.686501, 33.854208)"><g><path d="M 3.828125 0.109375 L 4.203125 0.140625 L 4.625 0.125 L 5.921875 -0.125 L 6.609375 -0.484375 L 7.03125 -0.78125 L 7.390625 -1.203125 L 7.65625 -1.625 L 7.765625 -1.859375 L 7.84375 -2.125 L 7.890625 -2.359375 L 7.90625 -3.171875 L 7.859375 -3.4375 L 7.796875 -3.6875 L 7.53125 -4.1875 L 7.21875 -4.59375 L 6.984375 -4.78125 L 6.296875 -5.09375 L 5.203125 -5.359375 L 3.875 -5.53125 L 3.328125 -5.71875 L 3.125 -5.828125 L 2.921875 -6.046875 L 2.90625 -6.390625 L 2.9375 -6.734375 L 3.078125 -6.921875 L 3.3125 -7.09375 L 3.5 -7.171875 L 3.734375 -7.234375 L 4.578125 -7.25 L 4.859375 -7.140625 L 5.0625 -6.984375 L 5.5 -6.53125 L 5.90625 -6.390625 L 6.78125 -6.375 L 7.015625 -6.390625 L 7.265625 -6.375 L 7.515625 -6.53125 L 7.640625 -6.78125 L 7.53125 -7.296875 L 7.3125 -7.765625 L 7.140625 -7.984375 L 7.015625 -8.1875 L 6.84375 -8.390625 L 6 -8.96875 L 5.28125 -9.21875 L 5 -9.265625 L 4.765625 -9.296875 L 4.46875 -9.359375 L 3.734375 -9.34375 L 2.6875 -9.140625 L 2.453125 -9.046875 L 2.234375 -8.921875 L 2.03125 -8.828125 L 1.765625 -8.671875 L 1.578125 -8.5 L 1.34375 -8.34375 L 1.203125 -8.125 L 1.03125 -7.953125 L 0.9375 -7.71875 L 0.796875 -7.5 L 0.625 -6.734375 L 0.640625 -5.859375 L 0.71875 -5.484375 L 0.890625 -5.03125 L 1.21875 -4.59375 L 1.59375 -4.25 L 2.0625 -3.96875 L 2.8125 -3.71875 L 3.28125 -3.609375 L 4.359375 -3.53125 L 4.609375 -3.5 L 4.859375 -3.484375 L 5.34375 -3.28125 L 5.53125 -3.125 L 5.59375 -2.78125 L 5.515625 -2.4375 L 5.296875 -2.25 L 5.09375 -2.140625 L 4.609375 -1.984375 L 4.234375 -1.984375 L 3.84375 -2 L 3.53125 -2.078125 L 3.34375 -2.171875 L 3.09375 -2.328125 L 2.90625 -2.5 L 2.703125 -2.765625 L 2.4375 -2.875 L 1.4375 -2.90625 L 1.171875 -2.875 L 0.90625 -2.890625 L 0.640625 -2.765625 L 0.546875 -2.5 L 0.578125 -2.203125 L 0.640625 -1.96875 L 0.84375 -1.4375 L 1.171875 -1.03125 L 1.5625 -0.640625 L 1.78125 -0.5 L 2.734375 -0.0625 L 3.015625 -0.03125 L 3.265625 0.0625 Z M 3.828125 0.109375 "/></g></g></g><g fill="#000000" fill-opacity="1"><g transform="translate(89.09774, 33.854208)"><g><path d="M 0.953125 -0.375 L 1.125 -0.125 L 1.375 0.015625 L 4.359375 -0.015625 L 4.59375 0.03125 L 5.390625 -0.015625 L 6.203125 0.046875 L 6.453125 0.015625 L 6.71875 -0.125 L 6.84375 -0.375 L 6.875 -0.625 L 6.859375 -1.4375 L 6.890625 -1.6875 L 6.71875 -1.953125 L 6.3125 -2.078125 L 4.578125 -2.109375 L 4.328125 -2.078125 L 4.03125 -2.09375 L 3.75 -2.078125 L 3.46875 -2.234375 L 3.34375 -2.640625 L 3.359375 -3.28125 L 3.484375 -3.5625 L 3.71875 -3.703125 L 4.234375 -3.703125 L 4.5 -3.734375 L 5.203125 -3.6875 L 5.546875 -3.71875 L 5.828125 -3.6875 L 6.0625 -3.703125 L 6.328125 -3.84375 L 6.46875 -4.09375 L 6.484375 -5.140625 L 6.46875 -5.40625 L 6.34375 -5.65625 L 6.125 -5.796875 L 5.59375 -5.8125 L 5.328125 -5.796875 L 5.046875 -5.796875 L 4.75 -5.8125 L 3.703125 -5.796875 L 3.484375 -5.953125 L 3.328125 -6.1875 L 3.296875 -6.59375 L 3.421875 -6.96875 L 3.84375 -7.09375 L 6.375 -7.109375 L 6.640625 -7.25 L 6.796875 -7.484375 L 6.765625 -8.03125 L 6.71875 -8.28125 L 6.734375 -8.578125 L 6.78125 -8.828125 L 6.640625 -9.09375 L 6.375 -9.203125 L 5.3125 -9.21875 L 5.078125 -9.1875 L 4.8125 -9.234375 L 4.234375 -9.203125 L 3.96875 -9.234375 L 3.453125 -9.21875 L 3.21875 -9.25 L 1.484375 -9.203125 L 1.109375 -9.109375 L 0.96875 -8.828125 L 1 -8.296875 L 0.953125 -7.90625 L 1 -7.234375 L 0.96875 -6.96875 L 1 -6.71875 L 1 -4.359375 L 0.96875 -4.09375 L 1 -3.578125 L 0.96875 -3.046875 L 1.015625 -2.765625 L 0.984375 -2.484375 L 1 -2.234375 L 0.96875 -1.984375 L 0.984375 -1.6875 L 0.984375 -1.421875 L 1.015625 -0.90625 L 1 -0.640625 Z M 0.953125 -0.375 "/></g></g></g></svg>
